<svg width="1200" height="630" xmlns="http://www.w3.org/2000/svg">
  <!-- Background -->
  <rect width="1200" height="630" fill="#044cb6"/>
  <!-- Subtle inner border -->
  <rect x="32" y="32" width="1136" height="566" rx="20" fill="none" stroke="white" stroke-width="1" opacity="0.15"/>

  <!-- Car logo (scaled up, centered left) -->
  <g transform="translate(340, 195) scale(7.5)">
    <rect width="32" height="32" rx="7" fill="white" opacity="0.12"/>
    <path d="M10 14 L12 10 L20 10 L22 14 Z" fill="white"/>
    <rect x="7" y="14" width="18" height="8" rx="1.5" fill="white"/>
    <path d="M11 14 L12.5 11 L19.5 11 L21 14 Z" fill="#044cb6"/>
    <rect x="8" y="16" width="4" height="2.5" rx="1" fill="#FFD700"/>
    <rect x="20" y="16" width="4" height="2.5" rx="1" fill="#FFD700"/>
    <rect x="13" y="16.5" width="6" height="2" rx="0.5" fill="#044cb6"/>
    <circle cx="11" cy="23" r="3" fill="#044cb6" stroke="white" stroke-width="1.5"/>
    <circle cx="11" cy="23" r="1.2" fill="white"/>
    <circle cx="21" cy="23" r="3" fill="#044cb6" stroke="white" stroke-width="1.5"/>
    <circle cx="21" cy="23" r="1.2" fill="white"/>
  </g>

  <!-- Text -->
  <text x="600" y="270" text-anchor="middle" font-family="system-ui,sans-serif" font-size="96" font-weight="800" fill="white">Caroon</text>
  <text x="600" y="340" text-anchor="middle" font-family="system-ui,sans-serif" font-size="42" font-weight="600" fill="white" opacity="0.85">Armenia</text>
  <text x="600" y="410" text-anchor="middle" font-family="system-ui,sans-serif" font-size="26" fill="white" opacity="0.55">Ավտոպահեստամասերի առցանց խանութ</text>
  <text x="600" y="460" text-anchor="middle" font-family="system-ui,sans-serif" font-size="22" fill="#FFD700" opacity="0.8">caroon.am</text>
</svg>
